HIERARCHY
ROOT root
{
	OFFSET	0	13.1	24.9
	CHANNELS 6  Xposition Yposition Zposition Xrotation Yrotation Zrotation
	JOINT spine_1
	{
		OFFSET	0	9.99999	0
		CHANNELS 3  Xrotation Yrotation Zrotation
		JOINT spine_2
		{
			OFFSET	0	112	-10
			CHANNELS 3  Xrotation Yrotation Zrotation
			JOINT spine_3
			{
				OFFSET	0	206.5	19.3
				CHANNELS 3  Xrotation Yrotation Zrotation
				JOINT spine_4
				{
					OFFSET	0	110.4	14.6
					CHANNELS 3  Xrotation Yrotation Zrotation
					JOINT neck_1
					{
						OFFSET	0	71.8	-50.3
						CHANNELS 3  Xrotation Yrotation Zrotation
						JOINT neck_2
						{
							OFFSET	0	86.2	-25.8
							CHANNELS 3  Xrotation Yrotation Zrotation
							JOINT head_ee
							{
								OFFSET	0	179.8	-8.7
								CHANNELS 3  Xrotation Yrotation Zrotation
								End Site
								{
									OFFSET	1	0	0
								}
							}
						}
					}
					JOINT left_clavicle
					{
						OFFSET	-43.2	22.4	-70.8
						CHANNELS 3  Xrotation Yrotation Zrotation
						JOINT left_shoulder
						{
							OFFSET	-93.9	-5.79999	48.7
							CHANNELS 3  Xrotation Yrotation Zrotation
							JOINT left_elbow
							{
								OFFSET	-291.4	-30.8	15.2
								CHANNELS 3  Xrotation Yrotation Zrotation
								JOINT left_lowarm_twist
								{
									OFFSET	-110.7	-3.89999	13.6
									CHANNELS 3  Xrotation Yrotation Zrotation
									JOINT left_hand
									{
										OFFSET	-110.7	-3.89999	13.6
										CHANNELS 3  Xrotation Yrotation Zrotation
										JOINT left_ee
										{
											OFFSET	-80.8	-5.10001	12.1
											CHANNELS 3  Xrotation Yrotation Zrotation
											End Site
											{
												OFFSET	1	0	0
											}
										}
									}
								}
							}
						}
					}
					JOINT right_clavicle
					{
						OFFSET	43.2	22.4	-70.8
						CHANNELS 3  Xrotation Yrotation Zrotation
						JOINT right_shoulder
						{
							OFFSET	93.9	-5.79999	48.7
							CHANNELS 3  Xrotation Yrotation Zrotation
							JOINT right_elbow
							{
								OFFSET	291.4	-30.8	15.2
								CHANNELS 3  Xrotation Yrotation Zrotation
								JOINT right_lowarm_twist
								{
									OFFSET	110.7	-3.89999	13.6
									CHANNELS 3  Xrotation Yrotation Zrotation
									JOINT right_hand
									{
										OFFSET	110.7	-3.89999	13.6
										CHANNELS 3  Xrotation Yrotation Zrotation
										JOINT right_ee
										{
											OFFSET	80.8	-5.10001	12.1
											CHANNELS 3  Xrotation Yrotation Zrotation
											End Site
											{
												OFFSET	1	0	0
											}
										}
									}
								}
							}
						}
					}
				}
			}
		}
	}
	JOINT left_hip
	{
		OFFSET	-82.8	-127.5	0.300001
		CHANNELS 3  Xrotation Yrotation Zrotation
		JOINT left_knee
		{
			OFFSET	-28.2	-396.7	2.2
			CHANNELS 3  Xrotation Yrotation Zrotation
			JOINT left_ankle
			{
				OFFSET	-11.7	-411.3	35.4
				CHANNELS 3  Xrotation Yrotation Zrotation
				JOINT left_toes
				{
					OFFSET	0	-60	-88.6
					CHANNELS 3  Xrotation Yrotation Zrotation
					JOINT left_foot_ee
					{
						OFFSET	-22.5	-16.5	-42.2
						CHANNELS 3  Xrotation Yrotation Zrotation
						End Site
						{
							OFFSET	1	0	0
						}
					}
				}
			}
		}
	}
	JOINT right_hip
	{
		OFFSET	82.8	-127.5	0.300001
		CHANNELS 3  Xrotation Yrotation Zrotation
		JOINT right_knee
		{
			OFFSET	28.2	-396.7	2.2
			CHANNELS 3  Xrotation Yrotation Zrotation
			JOINT right_ankle
			{
				OFFSET	11.7	-411.3	35.4
				CHANNELS 3  Xrotation Yrotation Zrotation
				JOINT right_toes
				{
					OFFSET	0	-60	-88.6
					CHANNELS 3  Xrotation Yrotation Zrotation
					JOINT right_foot_ee
					{
						OFFSET	22.5	-16.5	-42.2
						CHANNELS 3  Xrotation Yrotation Zrotation
						End Site
						{
							OFFSET	1	0	0
						}
					}
				}
			}
		}
	}
}
MOTION
Frames: 9
Frame Time: 0.02
3177.02 653.055 -1669.29 -14.2980638454 19.8192624989 10.2416346301 5.41437 -0.211896 -1.30717 5.41532 -0.128295 -1.31801 5.41735 0.0267012 -1.32396 5.41495 -0.182711 -1.31157 -5.78744 1.33933 0.563018 -5.78633 2.05554 0.816137 -0.0 0.0 -0.0 2.72725 5.27012 5.60948 -27.5063 -26.4758 80.6957 0.3247 -9.13777 0.0259473 -27.5412 -1.7338 3.03014 2.73812 28.2728 27.0828 -0.0 0.0 -0.0 4.79211 9.26981 -8.79876 0.0985358 32.6545 -63.3064 1.78297 41.4481 -0.67463 -70.6442 6.62827 -5.30758 -7.44897 -21.974 37.8512 0.0 0.0 0.0 44.2869 -15.5517 -4.99981 -4.72859 0.165604 0.706596 1.98776 7.87262 -0.28947 -28.1424 0.0 0.0 -0.0 0.0 -0.0 4.88846 11.783 -9.62023 -13.9082 -0.31846 -2.10541 36.7775 -9.05812 4.57722 13.3856 -0.0 -0.0 0.0 0.0 0.0 
3156.0714028 652.316 -1702.87900373 -13.892839694 18.8844551093 10.6042718921 5.51732 -0.237678 -1.44336 5.51846 -0.145362 -1.45555 5.521 0.0231861 -1.46261 5.51807 -0.208072 -1.44792 -7.24289 0.214586 0.666828 -7.24162 -0.0802948 0.709397 -0.0 0.0 -0.0 3.68014 5.79895 7.38044 -29.9891 -24.8309 77.3499 0.348281 -9.78898 0.0298246 -25.4052 -1.54897 2.82818 2.97024 27.0608 28.3445 -0.0 0.0 -0.0 4.45354 8.61867 -8.13824 -2.0354 32.1113 -63.1046 1.70848 40.2388 -0.625911 -71.8187 6.7783 -5.31487 -7.13117 -19.2094 38.1584 0.0 0.0 0.0 43.5525 -14.5436 -5.11719 -8.95937 0.263913 1.34826 6.31335 10.0892 -0.908758 -24.6477 0.0 0.0 -0.0 0.0 -0.0 3.97899 12.5393 -9.05849 -16.7287 -0.320242 -2.53811 38.2786 -11.6002 4.73512 14.6341 -0.0 -0.0 0.0 0.0 0.0 
3155.89145243 652.316 -1702.76610153 -13.9183317126 19.1829175744 10.6824382593 5.51732 -0.237678 -1.44336 5.51846 -0.145362 -1.45555 5.521 0.0231861 -1.46261 5.51807 -0.208072 -1.44792 -7.24289 0.214586 0.666828 -7.24162 -0.0802948 0.709397 -0.0 0.0 -0.0 3.68014 5.79895 7.38044 -29.9891 -24.8309 77.3499 0.348281 -9.78898 0.0298246 -25.4052 -1.54897 2.82818 2.97024 27.0608 28.3445 -0.0 0.0 -0.0 4.45354 8.61867 -8.13824 -2.0354 32.1113 -63.1046 1.70848 40.2388 -0.625911 -71.8187 6.7783 -5.31487 -7.13117 -19.2094 38.1584 0.0 0.0 0.0 43.5525 -14.5436 -5.11719 -8.95937 0.263913 1.34826 6.31335 10.0892 -0.908758 -24.6477 0.0 0.0 -0.0 0.0 -0.0 3.97899 12.5393 -9.05849 -16.7287 -0.320242 -2.53811 38.2786 -11.6002 4.73512 14.6341 -0.0 -0.0 0.0 0.0 0.0 
3140.67811874 656.239 -1726.0191099 -12.8265200731 17.6915866938 10.6647218977 5.60589 -0.224483 -1.5147 5.60716 -0.127655 -1.52592 5.60925 0.0465257 -1.53054 5.60603 -0.19575 -1.51868 -8.25394 -0.545937 0.781302 -8.25229 -1.56955 0.651813 -0.0 0.0 -0.0 4.56673 6.22159 9.01507 -31.1799 -23.6256 75.3691 0.367994 -10.3314 0.033268 -23.8766 -1.4214 2.67952 3.12996 26.2177 29.2374 -0.0 0.0 -0.0 4.29222 8.13845 -7.83635 -3.7008 31.7759 -63.2598 1.65624 39.364 -0.592468 -72.6549 6.88517 -5.31818 -6.9172 -17.2498 38.3337 0.0 0.0 0.0 43.0591 -13.8403 -5.13096 -11.9216 0.304423 1.80093 9.38876 11.6448 -1.34014 -22.1951 0.0 0.0 -0.0 0.0 -0.0 3.26433 13.014 -8.99627 -18.9016 -0.307092 -2.87122 39.2742 -13.3983 4.84529 15.4924 -0.0 -0.0 0.0 0.0 0.0 
3125.35650957 660.484 -1750.00468179 -11.8786894803 16.8032750979 10.5797278744 5.63503 -0.246867 -1.37532 5.63607 -0.15886 -1.38823 5.63883 -0.00085256 -1.39729 5.63618 -0.221497 -1.37963 -9.69844 -1.18161 1.74901 -9.69224 -3.41219 1.42149 -0.0 0.0 -0.0 5.27298 6.48512 10.3121 -29.942 -23.0114 73.2129 0.36068 -10.1304 0.031969 -22.8424 -1.33738 2.57706 3.27848 26.9316 30.3423 -0.0 0.0 -0.0 3.96026 7.61594 -7.18877 -5.96872 31.763 -64.7336 1.59078 38.2362 -0.551452 -74.4893 7.11962 -5.31993 -6.70176 -15.3966 38.2969 0.0 0.0 0.0 41.5052 -13.6147 -5.90409 -19.5248 0.30099 2.96665 14.799 15.8368 -2.08802 -19.0716 0.0 0.0 -0.0 0.0 -0.0 3.39844 13.5215 -9.18157 -21.305 -0.277847 -3.2388 38.0751 -15.9868 4.77082 16.5294 -0.0 -0.0 0.0 0.0 0.0 
3114.22038179 661.665 -1771.06649255 -10.5024970857 15.4604965727 10.1738605932 5.61241 -0.202858 -1.42291 5.61353 -0.111913 -1.43294 5.61517 0.0514575 -1.43638 5.61234 -0.176014 -1.42648 -11.6856 -1.62554 2.30896 -11.6801 -4.57735 1.77643 -0.0 0.0 -0.0 5.52189 6.31657 10.7682 -28.4135 -22.5242 71.5915 0.37109 -10.4164 0.0338256 -21.6978 -1.24656 2.46193 3.50472 27.4818 31.9401 -0.0 0.0 -0.0 4.34398 9.23302 -7.87131 -5.77143 31.7121 -67.1671 1.37116 34.1838 -0.42163 -75.8077 7.28802 -5.31652 -6.41041 -14.0234 37.1361 0.0 0.0 0.0 41.2028 -13.556 -6.44402 -24.5182 0.214712 3.72778 17.7358 20.1448 -2.50863 -17.2467 0.0 0.0 -0.0 0.0 -0.0 3.58452 13.9592 -9.28255 -25.4019 -0.192549 -3.86157 35.4111 -19.0547 4.56393 17.8343 -0.0 -0.0 0.0 0.0 0.0 
3114.28479255 661.665 -1771.10620809 -10.5006717413 15.4248504142 10.1670054603 5.61241 -0.202858 -1.42291 5.61353 -0.111913 -1.43294 5.61517 0.0514575 -1.43638 5.61234 -0.176014 -1.42648 -11.6856 -1.62554 2.30896 -11.6801 -4.57735 1.77643 -0.0 0.0 -0.0 5.52189 6.31657 10.7682 -28.4135 -22.5242 71.5915 0.37109 -10.4164 0.0338256 -21.6978 -1.24656 2.46193 3.50472 27.4818 31.9401 -0.0 0.0 -0.0 4.34398 9.23302 -7.87131 -5.77143 31.7121 -67.1671 1.37116 34.1838 -0.42163 -75.8077 7.28802 -5.31652 -6.41041 -14.0234 37.1361 0.0 0.0 0.0 41.2028 -13.556 -6.44402 -24.5182 0.214712 3.72778 17.7358 20.1448 -2.50863 -17.2467 0.0 0.0 -0.0 0.0 -0.0 3.58452 13.9592 -9.28255 -25.4019 -0.192549 -3.86157 35.4111 -19.0547 4.56393 17.8343 -0.0 -0.0 0.0 0.0 0.0 
3114.43537952 661.665 -1771.19884046 -10.4964254657 15.3415660111 10.150998307 5.61241 -0.202858 -1.42291 5.61353 -0.111913 -1.43294 5.61517 0.0514575 -1.43638 5.61234 -0.176014 -1.42648 -11.6856 -1.62554 2.30896 -11.6801 -4.57735 1.77643 -0.0 0.0 -0.0 5.52189 6.31657 10.7682 -28.4135 -22.5242 71.5915 0.37109 -10.4164 0.0338256 -21.6978 -1.24656 2.46193 3.50472 27.4818 31.9401 -0.0 0.0 -0.0 4.34398 9.23302 -7.87131 -5.77143 31.7121 -67.1671 1.37116 34.1838 -0.42163 -75.8077 7.28802 -5.31652 -6.41041 -14.0234 37.1361 0.0 0.0 0.0 41.2028 -13.556 -6.44402 -24.5182 0.214712 3.72778 17.7358 20.1448 -2.50863 -17.2467 0.0 0.0 -0.0 0.0 -0.0 3.58452 13.9592 -9.28255 -25.4019 -0.192549 -3.86157 35.4111 -19.0547 4.56393 17.8343 -0.0 -0.0 0.0 0.0 0.0 
3104.2132669 663.481 -1787.65854069 -9.75726529055 14.9375805563 9.87583756496 5.51607 -0.225692 -1.43863 5.51721 -0.133701 -1.45007 5.51945 0.0341809 -1.45582 5.51654 -0.196143 -1.44295 -14.826 -1.45438 1.87886 -14.8289 -3.90196 1.30004 -0.0 0.0 -0.0 5.22272 5.67761 10.2116 -25.6089 -22.6439 70.9326 0.437088 -12.2173 0.0467783 -20.7805 -1.17546 2.36838 3.64969 28.3097 33.0311 -0.0 0.0 -0.0 3.92289 10.4519 -6.91057 -8.06204 30.6906 -67.8465 1.20142 30.7577 -0.33046 -76.4571 7.37092 -5.3134 -6.26133 -12.4809 37.2244 0.0 0.0 0.0 40.1092 -13.8694 -6.14796 -27.3353 0.136872 4.15305 19.8788 23.9991 -2.83729 -15.9386 0.0 0.0 -0.0 0.0 -0.0 6.26186 13.9232 -9.19925 -31.1811 0.00298319 -4.72659 31.3366 -23.7188 4.22881 19.0501 -0.0 -0.0 0.0 0.0 0.0 
